<svg width="40" height="40" viewBox="0 0 40 40" fill="none" xmlns="http://www.w3.org/2000/svg">
<rect width="40" height="40" rx="8" fill="#2E37A4" fill-opacity="0.05"/>
<g clip-path="url(#clip0_60_33457)">
<g clip-path="url(#clip1_60_33457)">
<path opacity="0.4" d="M12 21.3245V16.2415C12 13.8955 13.904 12 16.25 12H24.75C27.096 12 29 13.8955 29 16.2415V22.1745C29 24.512 27.096 26.4075 24.75 26.4075H23.475C23.2115 26.4075 22.9565 26.535 22.7949 26.7475L21.5199 28.4389C20.9589 29.187 20.0409 29.187 19.48 28.4389L18.205 26.7475C18.069 26.5605 17.763 26.4075 17.525 26.4075H16.25C13.904 26.4075 12 24.512 12 22.1745V21.3245Z" fill="#797979"/>
<path d="M20.9999 20C20.44 20 20 19.55 20 19C20 18.45 20.45 18 20.9999 18C21.55 18 22 18.45 22 19C22 19.55 21.56 20 20.9999 20Z" fill="#797979"/>
<path d="M24 20C23.4399 20 23 19.55 23 19C23 18.45 23.45 18 24 18C24.55 18 25 18.45 25 19C25 19.55 24.5601 20 24 20Z" fill="#797979"/>
<path d="M17 20C16.44 20 16 19.55 16 19C16 18.45 16.45 18 17 18C17.55 18 18 18.45 18 19C18 19.55 17.56 20 17 20Z" fill="#797979"/>
</g>
</g>
<defs>
<clipPath id="clip0_60_33457">
<rect width="21" height="20" fill="white" transform="translate(10 10)"/>
</clipPath>
<clipPath id="clip1_60_33457">
<rect width="21" height="20" fill="white" transform="translate(10 10)"/>
</clipPath>
</defs>
</svg>
