<svg width="40" height="40" viewBox="0 0 40 40" fill="none" xmlns="http://www.w3.org/2000/svg">
<rect width="40" height="40" rx="8" fill="#2E37A4" fill-opacity="0.05"/>
<g clip-path="url(#clip0_60_33467)">
<g clip-path="url(#clip1_60_33467)">
<path opacity="0.4" d="M20.0013 14.4167V27.7751C19.8596 27.7751 19.7096 27.7501 19.593 27.6834L19.5596 27.6667C17.9596 26.7917 15.168 25.8751 13.3596 25.6334L13.118 25.6001C12.318 25.5001 11.668 24.7501 11.668 23.9501V13.8834C11.668 12.8917 12.4763 12.1417 13.468 12.2251C15.218 12.3667 17.868 13.2501 19.3513 14.1751L19.5596 14.3001C19.6846 14.3751 19.843 14.4167 20.0013 14.4167Z" fill="#797979"/>
<path d="M28.3333 13.8913V23.9496C28.3333 24.7496 27.6833 25.4996 26.8833 25.5996L26.6083 25.633C24.7917 25.8746 21.9917 26.7996 20.3917 27.683C20.2833 27.7496 20.15 27.7746 20 27.7746V14.4163C20.1583 14.4163 20.3167 14.3746 20.4417 14.2996L20.5833 14.208C22.0667 13.2746 24.725 12.383 26.475 12.233H26.525C27.5167 12.1496 28.3333 12.8913 28.3333 13.8913Z" fill="#797979"/>
<path d="M16.457 17.7031H14.582C14.2404 17.7031 13.957 17.4198 13.957 17.0781C13.957 16.7365 14.2404 16.4531 14.582 16.4531H16.457C16.7987 16.4531 17.082 16.7365 17.082 17.0781C17.082 17.4198 16.7987 17.7031 16.457 17.7031Z" fill="#797979"/>
<path d="M17.082 20.2031H14.582C14.2404 20.2031 13.957 19.9198 13.957 19.5781C13.957 19.2365 14.2404 18.9531 14.582 18.9531H17.082C17.4237 18.9531 17.707 19.2365 17.707 19.5781C17.707 19.9198 17.4237 20.2031 17.082 20.2031Z" fill="#797979"/>
</g>
</g>
<defs>
<clipPath id="clip0_60_33467">
<rect width="20" height="20" fill="white" transform="translate(10 10)"/>
</clipPath>
<clipPath id="clip1_60_33467">
<rect width="20" height="20" fill="white" transform="translate(10 10)"/>
</clipPath>
</defs>
</svg>
