<svg width="40" height="40" viewBox="0 0 40 40" fill="none" xmlns="http://www.w3.org/2000/svg">
<rect width="40" height="40" rx="8" fill="#2E37A4" fill-opacity="0.05"/>
<g clip-path="url(#clip0_60_33409)">
<g clip-path="url(#clip1_60_33409)">
<path d="M27.9817 19.0807V13.4141C27.9817 12.1641 27.4484 11.6641 26.1234 11.6641H22.7567C21.4317 11.6641 20.8984 12.1641 20.8984 13.4141V19.0807C20.8984 20.3307 21.4317 20.8307 22.7567 20.8307H26.1234C27.4484 20.8307 27.9817 20.3307 27.9817 19.0807Z" fill="#797979" fill-opacity="0.75"/>
<path d="M19.2318 20.9141V26.5807C19.2318 27.8307 18.6984 28.3307 17.3734 28.3307H14.0068C12.6818 28.3307 12.1484 27.8307 12.1484 26.5807V20.9141C12.1484 19.6641 12.6818 19.1641 14.0068 19.1641H17.3734C18.6984 19.1641 19.2318 19.6641 19.2318 20.9141Z" fill="#797979" fill-opacity="0.75"/>
<path opacity="0.4" d="M27.9817 26.5833V24.25C27.9817 23 27.4484 22.5 26.1234 22.5H22.7567C21.4317 22.5 20.8984 23 20.8984 24.25V26.5833C20.8984 27.8333 21.4317 28.3333 22.7567 28.3333H26.1234C27.4484 28.3333 27.9817 27.8333 27.9817 26.5833Z" fill="#3A643B" fill-opacity="0.75"/>
<path opacity="0.4" d="M19.2318 15.7474V13.4141C19.2318 12.1641 18.6984 11.6641 17.3734 11.6641H14.0068C12.6818 11.6641 12.1484 12.1641 12.1484 13.4141V15.7474C12.1484 16.9974 12.6818 17.4974 14.0068 17.4974H17.3734C18.6984 17.4974 19.2318 16.9974 19.2318 15.7474Z" fill="#3A643B" fill-opacity="0.75"/>
</g>
</g>
<defs>
<clipPath id="clip0_60_33409">
<rect width="21" height="20" fill="white" transform="translate(9.5 10)"/>
</clipPath>
<clipPath id="clip1_60_33409">
<rect width="21" height="20" fill="white" transform="translate(9.5 10)"/>
</clipPath>
</defs>
</svg>
