<svg width="40" height="40" viewBox="0 0 40 40" fill="none" xmlns="http://www.w3.org/2000/svg">
<rect width="40" height="40" rx="8" fill="#2E37A4" fill-opacity="0.05"/>
<g clip-path="url(#clip0_60_33431)">
<g clip-path="url(#clip1_60_33431)">
<g clip-path="url(#clip2_60_33431)">
<path d="M24.4746 12.9549V11.6347C24.4746 11.2877 24.1901 11 23.847 11C23.5038 11 23.2193 11.2877 23.2193 11.6347V12.9041H17.7796V11.6347C17.7796 11.2877 17.495 11 17.1519 11C16.8088 11 16.5243 11.2877 16.5243 11.6347V12.9549C14.2647 13.1664 13.1684 14.5289 13.001 16.5515C12.9842 16.7969 13.1851 17 13.4194 17H27.5795C27.8221 17 28.023 16.7884 27.9979 16.5515C27.8306 14.5289 26.7342 13.1664 24.4746 12.9549Z" fill="#797979"/>
<path opacity="0.4" d="M28 18.8306V20.2615C28 20.7632 27.55 21.1497 27.05 21.0675C26.8166 21.0345 26.575 21.0099 26.3333 21.0099C23.8083 21.0099 21.75 23.0411 21.75 25.5329C21.75 25.9112 21.9 26.4375 22.0583 26.9146C22.2416 27.449 21.8416 28 21.2666 28H17.1667C14.25 28 13 26.3553 13 23.8882V18.8224C13 18.3701 13.375 18 13.8333 18H27.1666C27.625 18.0082 28 18.3783 28 18.8306Z" fill="#797979"/>
<path d="M26.5 23C24.5662 23 23 24.5663 23 26.4999C23 27.1562 23.1838 27.7775 23.5075 28.3025C24.1112 29.3175 25.2225 30 26.5 30C27.7775 30 28.8888 29.3175 29.4925 28.3025C29.8162 27.7775 30 27.1562 30 26.4999C30 24.5663 28.4338 23 26.5 23ZM28.3113 26.1237L26.4475 27.8475C26.325 27.9612 26.1587 28.0224 26.0012 28.0224C25.835 28.0224 25.6687 27.9612 25.5375 27.83L24.6712 26.9637C24.4175 26.7099 24.4175 26.2899 24.6712 26.0363C24.925 25.7825 25.345 25.7825 25.5988 26.0363L26.0187 26.4563L27.4188 25.1612C27.6813 24.9162 28.1013 24.9338 28.3462 25.1963C28.5913 25.4588 28.5738 25.87 28.3113 26.1237Z" fill="#797979"/>
<path d="M18 23C17.74 23 17.48 22.8901 17.29 22.7102C17.11 22.5202 17 22.2604 17 22.0005C17 21.7405 17.11 21.4807 17.29 21.2909C17.52 21.0609 17.87 20.9509 18.2 21.0208C18.26 21.0309 18.32 21.0508 18.38 21.0808C18.44 21.1009 18.5 21.1308 18.56 21.1709C18.61 21.2108 18.66 21.2508 18.71 21.2909C18.89 21.4807 19 21.7405 19 22.0005C19 22.2604 18.89 22.5202 18.71 22.7102C18.66 22.7501 18.61 22.7901 18.56 22.8302C18.5 22.8701 18.44 22.9001 18.38 22.9201C18.32 22.9501 18.26 22.9701 18.2 22.9801C18.13 22.99 18.06 23 18 23Z" fill="#797979"/>
<path d="M20.9999 23C20.74 23 20.48 22.8893 20.29 22.7081C20.11 22.517 20 22.2553 20 21.9937C20 21.7321 20.11 21.4704 20.29 21.2792C20.6699 20.9069 21.34 20.9069 21.71 21.2792C21.89 21.4704 22 21.7321 22 21.9937C22 22.2553 21.89 22.517 21.71 22.7081C21.52 22.8893 21.26 23 20.9999 23Z" fill="#797979"/>
<path d="M18 26C17.74 26 17.48 25.89 17.29 25.7099C17.11 25.5197 17 25.2597 17 24.9995C17 24.7393 17.11 24.4792 17.29 24.2891C17.39 24.1991 17.49 24.129 17.62 24.0789C17.99 23.9189 18.43 24.0089 18.71 24.2891C18.89 24.4792 19 24.7393 19 24.9995C19 25.2597 18.89 25.5197 18.71 25.7099C18.52 25.89 18.26 26 18 26Z" fill="#797979"/>
</g>
</g>
</g>
<defs>
<clipPath id="clip0_60_33431">
<rect width="21" height="20" fill="white" transform="translate(10 10)"/>
</clipPath>
<clipPath id="clip1_60_33431">
<rect width="21" height="20" fill="white" transform="translate(10 10)"/>
</clipPath>
<clipPath id="clip2_60_33431">
<rect width="21" height="20" fill="white" transform="translate(10 10)"/>
</clipPath>
</defs>
</svg>
