<svg width="37" height="37" viewBox="0 0 37 37" fill="none" xmlns="http://www.w3.org/2000/svg">
<rect width="37" height="37" rx="12" fill="#2E37A4" fill-opacity="0.05"/>
<g clip-path="url(#clip0_60_33221)">
<g clip-path="url(#clip1_60_33221)">
<g clip-path="url(#clip2_60_33221)">
<path d="M25.6574 18.1875C25.1911 18.1875 24.8247 18.5539 24.8247 19.0202C24.8136 20.5746 24.214 22.0291 23.1259 23.1172C22.0267 24.2164 20.5612 24.827 19.0068 24.827C17.4524 24.827 15.9868 24.2164 14.8876 23.1172C14.8543 23.0839 14.8321 23.0506 14.7988 23.0173H15.7203C16.1755 23.0173 16.553 22.6398 16.553 22.1846C16.553 21.7293 16.1755 21.3518 15.7203 21.3518H12.778C12.3228 21.3518 11.9453 21.7293 11.9453 22.1846V25.1268C11.9453 25.582 12.3228 25.9595 12.778 25.9595C13.2333 25.9595 13.6108 25.582 13.6108 25.1268V24.1831C13.6441 24.2164 13.6774 24.2608 13.7107 24.3052C15.1207 25.7153 17.0083 26.5036 19.0068 26.5036C21.0053 26.5036 22.8928 25.7264 24.3028 24.3052C25.7018 22.9062 26.479 21.0299 26.4901 19.0313C26.4901 18.565 26.1126 18.1986 25.6574 18.1875Z" fill="#28643B"/>
<path d="M12.333 19.7162C12.7882 19.7162 13.1546 19.3498 13.1657 18.8945C13.1879 17.3734 13.7986 15.9412 14.8644 14.8642C15.9636 13.765 17.4292 13.1543 18.9836 13.1543C20.538 13.1543 22.0036 13.765 23.1028 14.8642C23.1361 14.8975 23.1583 14.9308 23.1916 14.9641H22.2701C21.8149 14.9641 21.4374 15.3416 21.4374 15.7968C21.4374 16.2521 21.8149 16.6295 22.2701 16.6295H25.2124C25.6676 16.6295 26.0451 16.2521 26.0451 15.7968V12.8657C26.0451 12.4104 25.6676 12.0329 25.2124 12.0329C24.7571 12.0329 24.3796 12.4104 24.3796 12.8657V13.8205C24.3463 13.7872 24.313 13.7428 24.2797 13.6984C22.8697 12.2883 20.9821 11.5 18.9836 11.5C16.9851 11.5 15.0976 12.2772 13.6875 13.6984C12.2997 15.0751 11.5225 16.9182 11.5002 18.8723C11.4891 19.3276 11.8555 19.7051 12.3219 19.7162C12.333 19.7162 12.333 19.7162 12.333 19.7162Z" fill="#28643B"/>
</g>
</g>
</g>
<defs>
<clipPath id="clip0_60_33221">
<rect width="15" height="15" fill="white" transform="translate(11.5 11.5)"/>
</clipPath>
<clipPath id="clip1_60_33221">
<rect width="15" height="15" fill="white" transform="translate(11.5 11.5)"/>
</clipPath>
<clipPath id="clip2_60_33221">
<rect width="15" height="15" fill="white" transform="translate(11.5 11.5)"/>
</clipPath>
</defs>
</svg>
