<svg width="46" height="46" viewBox="0 0 46 46" fill="none" xmlns="http://www.w3.org/2000/svg">
<rect x="0.75" y="0.75" width="44.1643" height="44.1643" rx="15.25" fill="#FDF8E5"/>
<rect x="0.75" y="0.75" width="44.1643" height="44.1643" rx="15.25" stroke="#E3E3E3" stroke-width="1.5"/>
<g clip-path="url(#clip0_60_33196)">
<g clip-path="url(#clip1_60_33196)">
<path d="M22.8126 12.1367C20.0158 12.1367 17.7422 14.4104 17.7422 17.2071C17.7422 19.9504 19.8877 22.1707 22.6845 22.2668C22.7698 22.2561 22.8553 22.2561 22.9193 22.2668C22.9407 22.2668 22.9514 22.2668 22.9727 22.2668C22.9834 22.2668 22.9834 22.2668 22.994 22.2668C25.7267 22.1707 27.8723 19.9504 27.883 17.2071C27.883 14.4104 25.6093 12.1367 22.8126 12.1367Z" fill="#3A643B"/>
<path opacity="0.4" d="M28.2344 25.1063C25.2562 23.1208 20.3992 23.1208 17.3997 25.1063C16.0441 26.0136 15.2969 27.2411 15.2969 28.5541C15.2969 29.8671 16.0441 31.084 17.3891 31.9806C18.8835 32.9841 20.8476 33.4857 22.8117 33.4857C24.7758 33.4857 26.7399 32.9841 28.2344 31.9806C29.5794 31.0733 30.3265 29.8565 30.3265 28.5328C30.3159 27.2198 29.5794 26.0029 28.2344 25.1063Z" fill="#3A643B"/>
<path d="M24.9453 27.754H23.611V26.4197C23.611 25.9821 23.2481 25.6191 22.8105 25.6191C22.3728 25.6191 22.0099 25.9821 22.0099 26.4197V27.754H20.6756C20.2379 27.754 19.875 28.117 19.875 28.5546C19.875 28.9923 20.2379 29.3552 20.6756 29.3552H22.0099V30.6896C22.0099 31.1272 22.3728 31.4901 22.8105 31.4901C23.2481 31.4901 23.611 31.1272 23.611 30.6896V29.3552H24.9453C25.383 29.3552 25.7459 28.9923 25.7459 28.5546C25.7459 28.117 25.383 27.754 24.9453 27.754Z" fill="#3A643B"/>
</g>
</g>
<defs>
<clipPath id="clip0_60_33196">
<rect width="25.6188" height="25.6188" fill="white" transform="translate(10 10)"/>
</clipPath>
<clipPath id="clip1_60_33196">
<rect width="25.6188" height="25.6188" fill="white" transform="translate(10 10)"/>
</clipPath>
</defs>
</svg>
