<svg width="46" height="46" viewBox="0 0 46 46" fill="none" xmlns="http://www.w3.org/2000/svg">
<rect x="0.75" y="0.75" width="44.1643" height="44.1643" rx="15.25" fill="#FDF8E5"/>
<rect x="0.75" y="0.75" width="44.1643" height="44.1643" rx="15.25" stroke="#E3E3E3" stroke-width="1.5"/>
<g clip-path="url(#clip0_60_33183)">
<g clip-path="url(#clip1_60_33183)">
<path opacity="0.4" d="M31.2629 26.4343C30.8115 26.8749 30.5536 27.5089 30.6181 28.186C30.7148 29.3466 31.7787 30.1956 32.9394 30.1956H34.9813V31.4745C34.9813 33.699 33.1651 35.5152 30.9405 35.5152H18.6033C16.3787 35.5152 14.5625 33.699 14.5625 31.4745V24.2419C14.5625 22.0174 16.3787 20.2012 18.6033 20.2012H30.9405C33.1651 20.2012 34.9813 22.0174 34.9813 24.2419V25.7895H32.8104C32.2086 25.7895 31.6605 26.0259 31.2629 26.4343Z" fill="#3A643B"/>
<path d="M27.8347 16.115V20.1987H18.6033C16.3787 20.1987 14.5625 22.015 14.5625 24.2395V20.2955C14.5625 19.0166 15.347 17.8774 16.5399 17.4261L25.0728 14.2021C26.4054 13.7077 27.8347 14.6857 27.8347 16.115Z" fill="#3A643B"/>
<path d="M36.1215 26.8891V29.103C36.1215 29.694 35.6486 30.1776 35.0468 30.1991H32.9405C31.7798 30.1991 30.7159 29.3501 30.6192 28.1895C30.5547 27.5124 30.8126 26.8784 31.264 26.4378C31.6616 26.0294 32.2097 25.793 32.8115 25.793H35.0468C35.6486 25.8145 36.1215 26.2981 36.1215 26.8891Z" fill="#3A643B"/>
<path d="M26.9225 25.5749H19.3998C18.9591 25.5749 18.5938 25.2095 18.5938 24.7689C18.5938 24.3283 18.9591 23.9629 19.3998 23.9629H26.9225C27.3631 23.9629 27.7285 24.3283 27.7285 24.7689C27.7285 25.2095 27.3631 25.5749 26.9225 25.5749Z" fill="#3A643B"/>
</g>
</g>
<defs>
<clipPath id="clip0_60_33183">
<rect width="25.7921" height="25.7921" fill="white" transform="translate(11.875 11.873)"/>
</clipPath>
<clipPath id="clip1_60_33183">
<rect width="25.7921" height="25.7921" fill="white" transform="translate(11.875 11.873)"/>
</clipPath>
</defs>
</svg>
