<svg width="46" height="46" viewBox="0 0 46 46" fill="none" xmlns="http://www.w3.org/2000/svg">
<rect x="0.75" y="0.75" width="44.1643" height="44.1643" rx="15.25" fill="#FDF8E5"/>
<rect x="0.75" y="0.75" width="44.1643" height="44.1643" rx="15.25" stroke="#E3E3E3" stroke-width="1.5"/>
<g clip-path="url(#clip0_60_33150)">
<g clip-path="url(#clip1_60_33150)">
<path d="M27.475 14.4032V12.8568C27.475 12.4503 27.138 12.1133 26.7315 12.1133C26.3251 12.1133 25.9881 12.4503 25.9881 12.8568V14.3438H19.5444V12.8568C19.5444 12.4503 19.2074 12.1133 18.8009 12.1133C18.3945 12.1133 18.0574 12.4503 18.0574 12.8568V14.4032C15.3809 14.6511 14.0822 16.2471 13.884 18.6164C13.8641 18.9038 14.1021 19.1418 14.3796 19.1418H31.1528C31.4403 19.1418 31.6782 18.8939 31.6485 18.6164C31.4502 16.2471 30.1516 14.6511 27.475 14.4032Z" fill="#3A643B"/>
<path opacity="0.4" d="M30.6962 20.6309C31.2415 20.6309 31.6876 21.0769 31.6876 21.6222V27.7288C31.6876 30.7028 30.2006 32.6854 26.7309 32.6854H18.8004C15.3307 32.6854 13.8438 30.7028 13.8438 27.7288V21.6222C13.8438 21.0769 14.2898 20.6309 14.8351 20.6309H30.6962Z" fill="#3A643B"/>
<path d="M19.296 25.7413C19.0383 25.7413 18.7805 25.6323 18.5922 25.4538C18.4137 25.2655 18.3047 25.0077 18.3047 24.75C18.3047 24.4922 18.4137 24.2345 18.5922 24.0461C18.8697 23.7686 19.3059 23.6794 19.6727 23.838C19.8016 23.8875 19.9106 23.9569 19.9998 24.0461C20.1783 24.2345 20.2873 24.4922 20.2873 24.75C20.2873 25.0077 20.1783 25.2655 19.9998 25.4538C19.8115 25.6323 19.5538 25.7413 19.296 25.7413Z" fill="#3A643B"/>
<path d="M22.7687 25.7413C22.5109 25.7413 22.2532 25.6323 22.0648 25.4538C21.8864 25.2655 21.7773 25.0077 21.7773 24.75C21.7773 24.4922 21.8864 24.2345 22.0648 24.0461C22.154 23.9569 22.2631 23.8875 22.392 23.838C22.7588 23.6794 23.1949 23.7686 23.4725 24.0461C23.6509 24.2345 23.76 24.4922 23.76 24.75C23.76 25.0077 23.6509 25.2655 23.4725 25.4538C23.4229 25.4935 23.3734 25.5331 23.3238 25.5728C23.2643 25.6124 23.2048 25.6422 23.1454 25.662C23.0859 25.6917 23.0264 25.7116 22.9669 25.7215C22.8975 25.7314 22.8381 25.7413 22.7687 25.7413Z" fill="#3A643B"/>
<path d="M26.2374 25.7424C25.9797 25.7424 25.7219 25.6334 25.5336 25.4549C25.3551 25.2666 25.2461 25.0088 25.2461 24.7511C25.2461 24.4933 25.3551 24.2356 25.5336 24.0472C25.6327 23.958 25.7318 23.8886 25.8607 23.8391C26.0392 23.7598 26.2374 23.7399 26.4357 23.7796C26.4952 23.7895 26.5546 23.8093 26.6141 23.8391C26.6736 23.8589 26.7331 23.8886 26.7926 23.9283C26.8421 23.9679 26.8917 24.0076 26.9413 24.0472C27.1197 24.2356 27.2287 24.4933 27.2287 24.7511C27.2287 25.0088 27.1197 25.2666 26.9413 25.4549C26.8917 25.4946 26.8421 25.5342 26.7926 25.5739C26.7331 25.6135 26.6736 25.6433 26.6141 25.6631C26.5546 25.6928 26.4952 25.7127 26.4357 25.7226C26.3663 25.7325 26.2969 25.7424 26.2374 25.7424Z" fill="#3A643B"/>
<path d="M19.296 29.2131C19.1671 29.2131 19.0383 29.1834 18.9193 29.1338C18.7904 29.0842 18.6913 29.0148 18.5922 28.9256C18.4137 28.7373 18.3047 28.4795 18.3047 28.2218C18.3047 27.964 18.4137 27.7063 18.5922 27.518C18.6913 27.4287 18.7904 27.3593 18.9193 27.3098C19.0977 27.2305 19.296 27.2106 19.4943 27.2503C19.5538 27.2602 19.6132 27.28 19.6727 27.3098C19.7322 27.3296 19.7917 27.3593 19.8512 27.399C19.9007 27.4386 19.9503 27.4783 19.9998 27.518C20.1783 27.7063 20.2873 27.964 20.2873 28.2218C20.2873 28.4795 20.1783 28.7373 19.9998 28.9256C19.9503 28.9653 19.9007 29.0148 19.8512 29.0446C19.7917 29.0842 19.7322 29.114 19.6727 29.1338C19.6132 29.1635 19.5538 29.1834 19.4943 29.1933C19.4249 29.2032 19.3654 29.2131 19.296 29.2131Z" fill="#3A643B"/>
<path d="M22.7687 29.2163C22.5109 29.2163 22.2532 29.1073 22.0648 28.9289C21.8864 28.7405 21.7773 28.4828 21.7773 28.225C21.7773 27.9673 21.8864 27.7095 22.0648 27.5212C22.4316 27.1544 23.1057 27.1544 23.4725 27.5212C23.6509 27.7095 23.76 27.9673 23.76 28.225C23.76 28.4828 23.6509 28.7405 23.4725 28.9289C23.2842 29.1073 23.0264 29.2163 22.7687 29.2163Z" fill="#3A643B"/>
<path d="M26.2374 29.2163C25.9797 29.2163 25.7219 29.1073 25.5336 28.9289C25.3551 28.7405 25.2461 28.4828 25.2461 28.225C25.2461 27.9673 25.3551 27.7095 25.5336 27.5212C25.9004 27.1544 26.5745 27.1544 26.9413 27.5212C27.1197 27.7095 27.2287 27.9673 27.2287 28.225C27.2287 28.4828 27.1197 28.7405 26.9413 28.9289C26.7529 29.1073 26.4952 29.2163 26.2374 29.2163Z" fill="#3A643B"/>
</g>
</g>
<defs>
<clipPath id="clip0_60_33150">
<rect width="23.7917" height="23.7917" fill="white" transform="translate(11.8711 11.873)"/>
</clipPath>
<clipPath id="clip1_60_33150">
<rect width="23.7917" height="23.7917" fill="white" transform="translate(10.8711 10.873)"/>
</clipPath>
</defs>
</svg>
