<svg width="40" height="40" viewBox="0 0 40 40" fill="none" xmlns="http://www.w3.org/2000/svg">
<rect width="40" height="40" rx="8" fill="#2E37A4" fill-opacity="0.05"/>
<g clip-path="url(#clip0_60_33478)">
<g clip-path="url(#clip1_60_33478)">
<path opacity="0.4" d="M26.2984 20.7943H27.9817V19.5943C27.9817 17.8693 26.5734 16.4609 24.8484 16.4609H15.2818C13.5568 16.4609 12.1484 17.8693 12.1484 19.5943V22.6359C12.8068 22.0359 13.6901 21.6693 14.6484 21.6693C16.7234 21.6693 18.3984 23.3526 18.3984 25.4193C18.3984 25.8609 18.3234 26.2776 18.1818 26.6693C17.9568 27.3276 17.5401 27.8943 17.0151 28.3359H24.8484C26.5734 28.3359 27.9817 26.9276 27.9817 25.2026V24.2109H26.3984C25.4984 24.2109 24.6734 23.5526 24.5984 22.6526C24.5484 22.1276 24.7484 21.6359 25.0984 21.2943C25.4067 20.9776 25.8317 20.7943 26.2984 20.7943Z" fill="#797979"/>
<path d="M14.6484 21.6641C13.6901 21.6641 12.8068 22.0307 12.1484 22.6307C11.9984 22.764 11.8568 22.9057 11.7318 23.0641C11.2068 23.7057 10.8984 24.5224 10.8984 25.4141C10.8984 27.4891 12.5818 29.1641 14.6484 29.1641C15.5484 29.1641 16.3651 28.8474 17.0151 28.3307C17.5401 27.8891 17.9568 27.3224 18.1818 26.6641C18.3234 26.2724 18.3984 25.8557 18.3984 25.4141C18.3984 23.3474 16.7234 21.6641 14.6484 21.6641ZM16.8984 24.6891C16.8984 24.9474 16.6901 25.1474 16.4401 25.1474C16.1901 25.1474 15.9818 24.9474 15.9818 24.6891V24.5974C15.9818 24.4974 15.9068 24.4141 15.8068 24.4141H13.9234C14.0151 24.5891 13.9984 24.8057 13.8484 24.9557C13.7651 25.0391 13.6484 25.0891 13.5234 25.0891C13.4068 25.0891 13.2901 25.0391 13.2068 24.9557L12.5318 24.2807C12.4901 24.2391 12.4568 24.1891 12.4318 24.1307C12.3901 24.0224 12.3901 23.8974 12.4318 23.7807C12.4568 23.7307 12.4901 23.6724 12.5318 23.6307L13.2068 22.9641C13.3818 22.7807 13.6734 22.7807 13.8484 22.9641C13.9984 23.1057 14.0151 23.3307 13.9234 23.4974H15.8068C16.4068 23.4974 16.8984 23.9891 16.8984 24.5974V24.6891ZM15.7734 27.9974C15.6484 27.9974 15.5318 27.9557 15.4484 27.8641C15.2984 27.7224 15.2818 27.4974 15.3734 27.3307H13.4901C12.8901 27.3307 12.3984 26.839 12.3984 26.2307V26.1391C12.3984 25.8807 12.6068 25.6807 12.8568 25.6807C13.1068 25.6807 13.3151 25.8807 13.3151 26.1391V26.2307C13.3151 26.3307 13.3901 26.4141 13.4901 26.4141H15.3734C15.2818 26.2391 15.2984 26.0224 15.4484 25.8724C15.6234 25.6974 15.9151 25.6974 16.0901 25.8724L16.7651 26.5474C16.8068 26.5891 16.8401 26.639 16.8651 26.6974C16.9068 26.8057 16.9068 26.9307 16.8651 27.0474C16.8401 27.0974 16.8068 27.1557 16.7651 27.1974L16.0901 27.8641C16.0068 27.9557 15.8901 27.9974 15.7734 27.9974Z" fill="#797979"/>
<path d="M22.4401 13.2949V16.4616H15.2818C13.5568 16.4616 12.1484 17.8699 12.1484 19.5949V16.5366C12.1484 15.545 12.7568 14.6616 13.6818 14.3116L20.2984 11.8116C21.3317 11.4282 22.4401 12.1866 22.4401 13.2949Z" fill="#797979"/>
<path d="M28.8681 21.639V23.3557C28.8681 23.8141 28.5014 24.189 28.0347 24.2057H26.4014C25.5014 24.2057 24.6764 23.5474 24.6014 22.6474C24.5514 22.1224 24.7514 21.6307 25.1014 21.289C25.4097 20.9724 25.8347 20.7891 26.3014 20.7891H28.0347C28.5014 20.8057 28.8681 21.1807 28.8681 21.639Z" fill="#797979"/>
<path d="M21.7317 20.625H15.8984C15.5568 20.625 15.2734 20.3417 15.2734 20C15.2734 19.6583 15.5568 19.375 15.8984 19.375H21.7317C22.0734 19.375 22.3567 19.6583 22.3567 20C22.3567 20.3417 22.0734 20.625 21.7317 20.625Z" fill="#797979"/>
</g>
</g>
<defs>
<clipPath id="clip0_60_33478">
<rect width="21" height="20" fill="white" transform="translate(9.5 10)"/>
</clipPath>
<clipPath id="clip1_60_33478">
<rect width="21" height="20" fill="white" transform="translate(9.5 10)"/>
</clipPath>
</defs>
</svg>
